<svg width="5342" height="894" viewBox="0 0 5342 894" fill="none" xmlns="http://www.w3.org/2000/svg">
<rect x="117" y="115" width="677" height="677" rx="99" fill="#FFF1DA"/>
<path d="M258.693 693.871L314.874 449.805C328.587 390.247 349.463 342.457 377.503 306.436C426.623 243.399 481.576 211.88 542.362 211.88C576.746 211.88 603.353 221.294 622.182 240.124C637.737 255.679 645.514 275.634 645.514 299.989C645.514 309.608 644.286 320.046 641.83 331.303C634.257 366.301 611.949 395.569 574.904 419.105C584.319 423.403 592.812 429.85 600.385 438.446C617.372 457.48 625.866 480.096 625.866 506.293C625.866 516.731 624.536 527.886 621.875 539.757C612.051 580.69 591.277 613.948 559.554 639.532C524.761 667.571 482.906 681.591 433.991 681.591H374.74L375.354 678.521L409.738 629.401H445.964C475.845 629.401 502.554 619.372 526.091 599.315C542.874 584.988 554.13 565.749 559.861 541.599C562.112 532.184 563.238 523.383 563.238 515.196C563.238 501.893 560.168 490.432 554.028 480.812C540.725 459.936 518.621 449.498 487.716 449.498H428.465L429.079 446.428L463.463 397.308H499.689C520.36 397.308 538.371 390.657 553.721 377.353C567.638 365.278 576.848 349.416 581.351 329.768C582.784 323.423 583.5 317.386 583.5 311.655C583.5 300.603 580.532 290.881 574.597 282.49C565.592 270.21 550.856 264.07 530.389 264.07C492.321 264.07 457.118 286.174 424.781 330.382C404.519 358.012 388.35 397.82 376.275 449.805L326.541 666.241L261.763 693.871H258.693Z" fill="#292929" stroke="#292929" stroke-width="14" stroke-linejoin="round"/>
<path d="M1042.23 673C1037.53 673 1033.47 671.291 1030.05 667.872C1026.63 664.453 1024.92 660.394 1024.92 655.693V241.607C1024.92 236.906 1026.63 232.847 1030.05 229.428C1033.47 226.009 1037.53 224.3 1042.23 224.3H1231.32C1258.67 224.3 1281.53 228.573 1299.91 237.12C1318.28 245.239 1333.03 255.709 1344.14 268.529C1355.25 280.922 1363.15 294.596 1367.85 309.553C1372.98 324.082 1375.55 337.757 1375.55 350.577C1375.55 363.397 1373.84 374.935 1370.42 385.191C1367 395.02 1362.73 403.566 1357.6 410.831C1352.9 417.668 1347.98 423.437 1342.86 428.138C1338.15 432.839 1334.31 436.044 1331.32 437.753C1344.56 446.727 1356.74 459.547 1367.85 476.213C1378.97 492.452 1384.52 513.177 1384.52 538.39C1384.52 554.629 1381.53 570.867 1375.55 587.106C1369.56 602.917 1360.8 617.233 1349.27 630.053C1337.73 642.873 1323.2 653.343 1305.68 661.462C1288.58 669.154 1268.71 673 1246.06 673H1042.23ZM1289.01 353.782C1289.01 337.543 1283.88 325.364 1273.63 317.245C1263.37 308.698 1247.13 304.425 1224.91 304.425H1111.45V403.139H1224.91C1247.13 403.139 1263.37 399.079 1273.63 390.96C1283.88 382.413 1289.01 370.021 1289.01 353.782ZM1111.45 592.875H1230.04C1253.54 592.875 1270.64 587.961 1281.32 578.132C1292.43 567.876 1297.99 554.629 1297.99 538.39C1297.99 522.151 1292.22 508.904 1280.68 498.648C1269.57 488.392 1252.69 483.264 1230.04 483.264H1111.45V592.875ZM1458.59 421.728C1460.3 412.754 1464.14 403.139 1470.12 392.883C1476.53 382.627 1485.29 373.012 1496.4 364.038C1507.94 355.064 1521.83 347.799 1538.07 342.244C1554.74 336.261 1573.97 333.27 1595.76 333.27C1617.55 333.27 1637.21 336.261 1654.73 342.244C1672.25 347.799 1687.21 356.132 1699.6 367.243C1712.42 378.354 1722.25 392.456 1729.09 409.549C1735.93 426.215 1739.34 445.445 1739.34 467.239V655.693C1739.34 660.394 1737.63 664.453 1734.22 667.872C1730.8 671.291 1726.74 673 1722.04 673H1673.32C1668.62 673 1664.56 671.291 1661.14 667.872C1657.72 664.453 1656.01 660.394 1656.01 655.693V634.54C1647.04 646.933 1634.01 657.616 1616.91 666.59C1600.25 675.137 1578.88 679.41 1552.81 679.41C1534.44 679.41 1517.99 677.06 1503.46 672.359C1488.93 667.231 1476.75 660.18 1466.92 651.206C1457.09 642.232 1449.4 631.762 1443.84 619.797C1438.71 607.404 1436.15 593.943 1436.15 579.414C1436.15 549.928 1446.62 526.852 1467.56 510.186C1488.5 493.52 1516.49 482.196 1551.53 476.213L1656.01 458.265C1656.01 440.744 1650.24 428.352 1638.71 421.087C1627.17 413.822 1612.85 410.19 1595.76 410.19C1585.08 410.19 1576.74 411.686 1570.76 414.677C1564.78 417.668 1559.01 421.728 1553.45 426.856C1549.61 430.275 1545.98 432.625 1542.56 433.907C1539.57 435.189 1536.15 435.83 1532.3 435.83H1472.69C1468.41 435.83 1464.78 434.548 1461.79 431.984C1458.8 429.42 1457.73 426.001 1458.59 421.728ZM1565.63 602.49C1580.16 602.49 1592.98 600.567 1604.09 596.721C1615.63 592.448 1625.25 586.892 1632.94 580.055C1640.63 573.218 1646.4 565.526 1650.24 556.979C1654.09 548.432 1656.01 539.672 1656.01 530.698V524.288L1568.84 539.672C1551.32 542.663 1538.71 547.15 1531.02 553.133C1523.33 558.688 1519.48 566.38 1519.48 576.209C1519.48 585.183 1523.97 591.807 1532.94 596.08C1542.34 600.353 1553.24 602.49 1565.63 602.49ZM1908.11 655.693C1908.11 660.394 1906.4 664.453 1902.98 667.872C1899.57 671.291 1895.51 673 1890.81 673H1842.09C1837.39 673 1833.33 671.291 1829.91 667.872C1826.49 664.453 1824.78 660.394 1824.78 655.693V235.197C1824.78 230.496 1826.49 226.437 1829.91 223.018C1833.33 219.599 1837.39 217.89 1842.09 217.89H1890.81C1895.51 217.89 1899.57 219.599 1902.98 223.018C1906.4 226.437 1908.11 230.496 1908.11 235.197V655.693ZM2152.06 416.6C2126.42 416.6 2107.83 422.369 2096.3 433.907C2085.19 445.018 2079.63 463.393 2079.63 489.033V655.693C2079.63 660.394 2077.92 664.453 2074.5 667.872C2071.08 671.291 2067.02 673 2062.32 673H2013.61C2008.91 673 2004.85 671.291 2001.43 667.872C1998.01 664.453 1996.3 660.394 1996.3 655.693V356.987C1996.3 352.286 1998.01 348.227 2001.43 344.808C2004.85 341.389 2008.91 339.68 2013.61 339.68H2062.32C2067.02 339.68 2071.08 341.389 2074.5 344.808C2077.92 348.227 2079.63 352.286 2079.63 356.987V371.73C2090.74 361.474 2102.49 353.568 2114.88 348.013C2127.7 342.458 2144.37 339.68 2164.88 339.68H2193.73C2198.43 339.68 2202.49 341.389 2205.91 344.808C2209.33 348.227 2211.03 352.286 2211.03 356.987V399.293C2211.03 403.994 2209.33 408.053 2205.91 411.472C2202.49 414.891 2198.43 416.6 2193.73 416.6H2152.06ZM2406 333.27C2429.5 333.27 2450.66 336.902 2469.46 344.167C2488.69 351.432 2505.14 361.474 2518.81 374.294C2532.92 387.114 2544.03 402.071 2552.15 419.164C2560.69 436.257 2565.61 454.633 2566.89 474.29C2567.32 478.136 2567.53 483.05 2567.53 489.033C2567.53 495.016 2567.53 500.998 2567.53 506.981C2567.53 512.964 2567.53 518.946 2567.53 524.929C2567.53 530.484 2567.32 535.185 2566.89 539.031C2565.18 558.688 2560.27 577.064 2552.15 594.157C2544.03 611.25 2532.92 626.207 2518.81 639.027C2505.14 651.42 2488.69 661.248 2469.46 668.513C2450.66 675.778 2429.5 679.41 2406 679.41C2382.5 679.41 2361.13 675.778 2341.9 668.513C2323.1 661.248 2306.64 651.42 2292.54 639.027C2278.87 626.207 2267.97 611.25 2259.85 594.157C2251.73 577.064 2246.82 558.688 2245.11 539.031C2244.68 535.185 2244.25 530.484 2243.83 524.929C2243.83 518.946 2243.83 512.964 2243.83 506.981C2243.83 500.998 2243.83 495.016 2243.83 489.033C2244.25 483.05 2244.68 478.136 2245.11 474.29C2246.39 454.633 2251.09 436.257 2259.21 419.164C2267.76 402.071 2278.87 387.114 2292.54 374.294C2306.64 361.474 2323.1 351.432 2341.9 344.167C2361.13 336.902 2382.5 333.27 2406 333.27ZM2483.56 477.495C2482.28 464.248 2479.07 453.351 2473.94 444.804C2469.24 435.83 2463.26 428.779 2456 423.651C2448.73 418.523 2440.83 415.104 2432.28 413.395C2423.73 411.258 2414.97 410.19 2406 410.19C2397.02 410.19 2388.26 411.258 2379.72 413.395C2371.17 415.104 2363.27 418.523 2356 423.651C2348.74 428.779 2342.54 435.83 2337.41 444.804C2332.71 453.351 2329.72 464.248 2328.44 477.495C2328.01 480.914 2327.58 485.187 2327.16 490.315C2327.16 495.443 2327.16 500.785 2327.16 506.34C2327.16 511.895 2327.16 517.451 2327.16 523.006C2327.58 528.134 2328.01 532.194 2328.44 535.185C2329.72 548.432 2332.71 559.543 2337.41 568.517C2342.54 577.064 2348.74 583.901 2356 589.029C2363.27 594.157 2371.17 597.789 2379.72 599.926C2388.26 601.635 2397.02 602.49 2406 602.49C2414.97 602.49 2423.73 601.635 2432.28 599.926C2440.83 597.789 2448.73 594.157 2456 589.029C2463.26 583.901 2469.24 577.064 2473.94 568.517C2479.07 559.543 2482.28 548.432 2483.56 535.185C2483.99 532.194 2484.2 528.134 2484.2 523.006C2484.2 517.451 2484.2 511.895 2484.2 506.34C2484.2 500.785 2484.2 495.443 2484.2 490.315C2484.2 485.187 2483.99 480.914 2483.56 477.495ZM2723.76 545.441V655.693C2723.76 660.394 2722.05 664.453 2718.63 667.872C2715.21 671.291 2711.15 673 2706.45 673H2657.74C2653.04 673 2648.98 671.291 2645.56 667.872C2642.14 664.453 2640.43 660.394 2640.43 655.693V235.197C2640.43 230.496 2642.14 226.437 2645.56 223.018C2648.98 219.599 2653.04 217.89 2657.74 217.89H2706.45C2711.15 217.89 2715.21 219.599 2718.63 223.018C2722.05 226.437 2723.76 230.496 2723.76 235.197V437.112L2830.81 350.577C2833.37 348.44 2836.58 346.09 2840.42 343.526C2844.7 340.962 2849.82 339.68 2855.81 339.68H2921.19C2925.46 339.68 2929.09 341.176 2932.08 344.167C2935.08 347.158 2936.57 350.791 2936.57 355.064C2936.57 357.201 2936.14 359.337 2935.29 361.474C2934.86 363.183 2932.94 365.32 2929.52 367.884L2780.17 488.392L2943.62 645.437C2946.19 648.001 2947.9 650.138 2948.75 651.847C2949.61 653.556 2950.03 655.479 2950.03 657.616C2950.03 661.889 2948.54 665.522 2945.55 668.513C2942.55 671.504 2938.92 673 2934.65 673H2872.47C2866.06 673 2860.51 671.718 2855.81 669.154C2851.53 666.59 2848.33 664.24 2846.19 662.103L2723.76 545.441ZM3069.59 575.568C3074.29 575.568 3078.35 577.277 3081.77 580.696C3085.19 584.115 3086.9 588.174 3086.9 592.875V655.693C3086.9 660.394 3085.19 664.453 3081.77 667.872C3078.35 671.291 3074.29 673 3069.59 673H3009.98C3005.28 673 3001.22 671.291 2997.8 667.872C2994.38 664.453 2992.67 660.394 2992.67 655.693V592.875C2992.67 588.174 2994.38 584.115 2997.8 580.696C3001.22 577.277 3005.28 575.568 3009.98 575.568H3069.59ZM3327.11 217.89C3355.74 217.89 3380.95 221.736 3402.75 229.428C3424.54 237.12 3442.7 246.735 3457.23 258.273C3471.76 269.811 3482.66 282.631 3489.92 296.733C3497.62 310.408 3501.89 323.441 3502.74 335.834C3503.17 340.962 3501.46 345.235 3497.62 348.654C3494.2 351.645 3490.14 353.141 3485.44 353.141H3440.57C3433.3 353.141 3427.75 351.859 3423.9 349.295C3420.48 346.304 3417.28 342.458 3414.29 337.757C3407.88 327.074 3398.05 317.886 3384.8 310.194C3371.98 302.075 3352.75 298.015 3327.11 298.015C3316 298.015 3305.32 299.297 3295.06 301.861C3285.23 303.998 3276.47 307.416 3268.78 312.117C3261.52 316.39 3255.75 321.732 3251.47 328.142C3247.2 334.552 3245.06 341.817 3245.06 349.936C3245.06 359.765 3246.99 367.884 3250.83 374.294C3255.11 380.277 3261.94 385.618 3271.34 390.319C3281.17 394.592 3293.99 398.652 3309.8 402.498C3325.62 406.344 3345.27 410.831 3368.78 415.959C3394.42 421.514 3416.42 428.138 3434.8 435.83C3453.6 443.095 3468.77 452.069 3480.31 462.752C3492.28 473.008 3501.04 484.973 3506.59 498.648C3512.57 512.323 3515.56 527.92 3515.56 545.441C3515.56 564.671 3511.29 582.619 3502.74 599.285C3494.2 615.524 3482.02 629.626 3466.21 641.591C3450.4 653.129 3430.95 662.317 3407.88 669.154C3384.8 675.991 3358.95 679.41 3330.32 679.41C3306.39 679.41 3283.52 676.632 3261.73 671.077C3239.93 665.094 3220.49 656.761 3203.4 646.078C3186.73 634.967 3173.27 621.72 3163.01 606.336C3152.76 590.952 3146.99 573.859 3145.71 555.056C3145.28 549.928 3146.78 545.868 3150.19 542.877C3154.04 539.458 3158.31 537.749 3163.01 537.749H3207.88C3215.15 537.749 3220.7 539.031 3224.55 541.595C3228.4 544.159 3231.6 548.005 3234.17 553.133C3237.16 558.688 3240.79 564.244 3245.06 569.799C3249.34 575.354 3255.11 580.269 3262.37 584.542C3269.63 588.815 3278.61 592.448 3289.29 595.439C3300.4 598.003 3314.08 599.285 3330.32 599.285C3343.14 599.285 3355.53 598.43 3367.49 596.721C3379.46 594.584 3389.93 591.379 3398.9 587.106C3407.88 582.405 3415.14 576.85 3420.7 570.44C3426.25 563.603 3429.03 555.27 3429.03 545.441C3429.03 536.04 3426.04 528.348 3420.06 522.365C3414.07 516.382 3404.89 511.254 3392.49 506.981C3380.53 502.708 3365.57 498.648 3347.62 494.802C3329.67 490.956 3308.95 486.042 3285.45 480.059C3264.08 474.931 3245.28 468.948 3229.04 462.111C3213.23 454.846 3199.98 446.086 3189.3 435.83C3179.04 425.574 3171.35 413.609 3166.22 399.934C3161.09 385.832 3158.53 369.166 3158.53 349.936C3158.53 330.706 3162.8 312.972 3171.35 296.733C3179.89 280.494 3191.65 266.606 3206.6 255.068C3221.56 243.53 3239.29 234.556 3259.81 228.146C3280.75 221.309 3303.18 217.89 3327.11 217.89ZM3695.33 552.492C3695.33 565.739 3698.74 576.423 3705.58 584.542C3712.85 592.234 3726.09 596.08 3745.32 596.08H3784.42C3789.13 596.08 3793.18 597.789 3796.6 601.208C3800.02 604.627 3801.73 608.686 3801.73 613.387V655.693C3801.73 660.394 3800.02 664.453 3796.6 667.872C3793.18 671.291 3789.13 673 3784.42 673H3736.99C3696.82 673 3665.84 663.385 3644.05 644.155C3622.68 624.498 3612 594.584 3612 554.415V416.6H3569.69C3564.99 416.6 3560.93 414.891 3557.51 411.472C3554.09 408.053 3552.38 403.994 3552.38 399.293V356.987C3552.38 352.286 3554.09 348.227 3557.51 344.808C3560.93 341.389 3564.99 339.68 3569.69 339.68H3612V235.197C3612 230.496 3613.7 226.437 3617.12 223.018C3620.54 219.599 3624.6 217.89 3629.3 217.89H3678.02C3682.72 217.89 3686.78 219.599 3690.2 223.018C3693.62 226.437 3695.33 230.496 3695.33 235.197V339.68H3778.01C3782.72 339.68 3786.77 341.389 3790.19 344.808C3793.61 348.227 3795.32 352.286 3795.32 356.987V399.293C3795.32 403.994 3793.61 408.053 3790.19 411.472C3786.77 414.891 3782.72 416.6 3778.01 416.6H3695.33V552.492ZM3861.63 356.987C3861.63 352.286 3863.34 348.227 3866.76 344.808C3870.18 341.389 3874.24 339.68 3878.94 339.68H3927.66C3932.36 339.68 3936.42 341.389 3939.84 344.808C3943.26 348.227 3944.96 352.286 3944.96 356.987V519.801C3944.96 545.441 3950.31 565.953 3960.99 581.337C3972.1 596.721 3990.05 604.413 4014.83 604.413C4037.48 604.413 4054.79 596.721 4066.75 581.337C4078.72 565.953 4084.7 545.441 4084.7 519.801V356.987C4084.7 352.286 4086.41 348.227 4089.83 344.808C4093.25 341.389 4097.31 339.68 4102.01 339.68H4150.73C4155.43 339.68 4159.49 341.389 4162.9 344.808C4166.32 348.227 4168.03 352.286 4168.03 356.987V655.693C4168.03 660.394 4166.32 664.453 4162.9 667.872C4159.49 671.291 4155.43 673 4150.73 673H4102.01C4097.31 673 4093.25 671.291 4089.83 667.872C4086.41 664.453 4084.7 660.394 4084.7 655.693V640.95C4074.87 650.779 4062.7 659.753 4048.17 667.872C4033.64 675.564 4016.12 679.41 3995.6 679.41C3969.54 679.41 3947.96 675.35 3930.86 667.231C3913.77 659.112 3900.09 648.215 3889.84 634.54C3879.58 620.865 3872.32 605.054 3868.04 587.106C3863.77 568.731 3861.63 549.501 3861.63 529.416V356.987ZM4384.9 333.27C4398.15 333.27 4409.9 334.552 4420.16 337.116C4430.84 339.68 4440.03 342.885 4447.72 346.731C4455.84 350.577 4462.68 354.85 4468.23 359.551C4473.79 363.824 4478.27 367.884 4481.69 371.73V235.197C4481.69 230.496 4483.4 226.437 4486.82 223.018C4490.24 219.599 4494.3 217.89 4499 217.89H4547.72C4552.42 217.89 4556.48 219.599 4559.89 223.018C4563.31 226.437 4565.02 230.496 4565.02 235.197V655.693C4565.02 660.394 4563.31 664.453 4559.89 667.872C4556.48 671.291 4552.42 673 4547.72 673H4499C4494.3 673 4490.24 671.291 4486.82 667.872C4483.4 664.453 4481.69 660.394 4481.69 655.693V640.95C4478.27 644.796 4473.79 649.069 4468.23 653.77C4462.68 658.043 4455.84 662.103 4447.72 665.949C4440.03 669.795 4430.84 673 4420.16 675.564C4409.9 678.128 4398.15 679.41 4384.9 679.41C4363.53 679.41 4344.09 675.35 4326.57 667.231C4309.48 658.684 4294.73 647.574 4282.34 633.899C4270.38 619.797 4260.76 603.772 4253.5 585.824C4246.66 567.449 4242.81 548.432 4241.96 528.775C4241.53 522.365 4241.32 514.887 4241.32 506.34C4241.32 497.793 4241.53 490.315 4241.96 483.905C4242.81 464.248 4246.66 445.445 4253.5 427.497C4260.76 409.122 4270.38 393.097 4282.34 379.422C4294.73 365.32 4309.48 354.209 4326.57 346.09C4344.09 337.543 4363.53 333.27 4384.9 333.27ZM4325.29 488.392C4324.01 500.357 4324.01 512.323 4325.29 524.288C4327.85 552.065 4336.4 572.149 4350.93 584.542C4365.46 596.507 4383.19 602.49 4404.13 602.49C4425.07 602.49 4442.59 596.294 4456.69 583.901C4471.22 571.508 4479.56 553.774 4481.69 530.698C4482.55 524.288 4482.97 516.169 4482.97 506.34C4482.97 496.511 4482.55 488.392 4481.69 481.982C4479.56 459.761 4471.22 442.24 4456.69 429.42C4442.59 416.6 4425.07 410.19 4404.13 410.19C4383.19 410.19 4365.46 416.386 4350.93 428.779C4336.4 440.744 4327.85 460.615 4325.29 488.392ZM4736.9 655.693C4736.9 660.394 4735.19 664.453 4731.77 667.872C4728.35 671.291 4724.29 673 4719.59 673H4670.88C4666.18 673 4662.12 671.291 4658.7 667.872C4655.28 664.453 4653.57 660.394 4653.57 655.693V356.987C4653.57 352.286 4655.28 348.227 4658.7 344.808C4662.12 341.389 4666.18 339.68 4670.88 339.68H4719.59C4724.29 339.68 4728.35 341.389 4731.77 344.808C4735.19 348.227 4736.9 352.286 4736.9 356.987V655.693ZM4722.8 217.89C4727.5 217.89 4731.56 219.599 4734.98 223.018C4738.4 226.437 4740.11 230.496 4740.11 235.197V285.195C4740.11 289.896 4738.4 293.955 4734.98 297.374C4731.56 300.793 4727.5 302.502 4722.8 302.502H4667.67C4662.97 302.502 4658.91 300.793 4655.49 297.374C4652.07 293.955 4650.37 289.896 4650.37 285.195V235.197C4650.37 230.496 4652.07 226.437 4655.49 223.018C4658.91 219.599 4662.97 217.89 4667.67 217.89H4722.8ZM4971.88 333.27C4995.38 333.27 5016.53 336.902 5035.34 344.167C5054.57 351.432 5071.02 361.474 5084.69 374.294C5098.79 387.114 5109.91 402.071 5118.02 419.164C5126.57 436.257 5131.49 454.633 5132.77 474.29C5133.2 478.136 5133.41 483.05 5133.41 489.033C5133.41 495.016 5133.41 500.998 5133.41 506.981C5133.41 512.964 5133.41 518.946 5133.41 524.929C5133.41 530.484 5133.2 535.185 5132.77 539.031C5131.06 558.688 5126.14 577.064 5118.02 594.157C5109.91 611.25 5098.79 626.207 5084.69 639.027C5071.02 651.42 5054.57 661.248 5035.34 668.513C5016.53 675.778 4995.38 679.41 4971.88 679.41C4948.37 679.41 4927.01 675.778 4907.78 668.513C4888.97 661.248 4872.52 651.42 4858.42 639.027C4844.75 626.207 4833.85 611.25 4825.73 594.157C4817.61 577.064 4812.7 558.688 4810.99 539.031C4810.56 535.185 4810.13 530.484 4809.7 524.929C4809.7 518.946 4809.7 512.964 4809.7 506.981C4809.7 500.998 4809.7 495.016 4809.7 489.033C4810.13 483.05 4810.56 478.136 4810.99 474.29C4812.27 454.633 4816.97 436.257 4825.09 419.164C4833.63 402.071 4844.75 387.114 4858.42 374.294C4872.52 361.474 4888.97 351.432 4907.78 344.167C4927.01 336.902 4948.37 333.27 4971.88 333.27ZM5049.44 477.495C5048.16 464.248 5044.95 453.351 5039.82 444.804C5035.12 435.83 5029.14 428.779 5021.87 423.651C5014.61 418.523 5006.7 415.104 4998.16 413.395C4989.61 411.258 4980.85 410.19 4971.88 410.19C4962.9 410.19 4954.14 411.258 4945.6 413.395C4937.05 415.104 4929.14 418.523 4921.88 423.651C4914.61 428.779 4908.42 435.83 4903.29 444.804C4898.59 453.351 4895.6 464.248 4894.32 477.495C4893.89 480.914 4893.46 485.187 4893.03 490.315C4893.03 495.443 4893.03 500.785 4893.03 506.34C4893.03 511.895 4893.03 517.451 4893.03 523.006C4893.46 528.134 4893.89 532.194 4894.32 535.185C4895.6 548.432 4898.59 559.543 4903.29 568.517C4908.42 577.064 4914.61 583.901 4921.88 589.029C4929.14 594.157 4937.05 597.789 4945.6 599.926C4954.14 601.635 4962.9 602.49 4971.88 602.49C4980.85 602.49 4989.61 601.635 4998.16 599.926C5006.7 597.789 5014.61 594.157 5021.87 589.029C5029.14 583.901 5035.12 577.064 5039.82 568.517C5044.95 559.543 5048.16 548.432 5049.44 535.185C5049.87 532.194 5050.08 528.134 5050.08 523.006C5050.08 517.451 5050.08 511.895 5050.08 506.34C5050.08 500.785 5050.08 495.443 5050.08 490.315C5050.08 485.187 5049.87 480.914 5049.44 477.495Z" fill="#FFF1DA"/>
</svg>
