<svg width="163" height="214" viewBox="0 0 163 214" fill="none" xmlns="http://www.w3.org/2000/svg">
<rect width="163" height="214" rx="6" fill="white"/>
<path d="M52.1344 89.3185C53.1446 96.4142 57.9114 101.903 62.1656 104.952C63.3593 105.807 64.7516 106.766 66.1616 107.686C67.359 108.468 69.0062 109.206 70.2066 109.936C76.9605 114.043 82.2579 127.222 81.6651 136.818C81.2371 143.746 76.8737 149.703 73.5541 154.428C66.989 163.772 57.1517 178.453 65.4013 191.197C71.0366 199.903 87.553 204.526 95.3888 185.918C97.3427 181.277 98.1222 169.606 98.73 163.552C100.851 142.426 99.776 138.911 105.555 119.197C107.837 111.415 109.087 105.604 107.221 96.863C106.332 92.7023 103.686 87.0758 101.079 83.6804C100.044 82.3334 99.2402 81.3237 98.2039 80.2491C94.4409 76.3466 88.6117 72.9488 81.8273 71.0144C73.4461 68.6251 68.058 68.8224 61.1375 73.0712C57.1661 75.509 51.0127 81.4394 52.1344 89.3185Z" stroke="black" stroke-width="0.5669" stroke-miterlimit="22.9256"/>
<path d="M80.7905 48.4749C76.9076 49.4313 75.5515 52.3501 75.8033 56.9709C76.0281 61.097 77.3861 65.08 82.4658 62.9106C90.3651 59.5374 87.6844 46.7772 80.7905 48.4749Z" stroke="black" stroke-width="0.5669" stroke-miterlimit="22.9256"/>
<path d="M96.0008 64.946C96.6437 61.8446 95.6161 60.2617 92.1941 60.4964C89.7215 60.6662 87.3242 61.8531 86.9807 64.1679C86.2952 68.7889 94.4117 72.6151 96.0008 64.946Z" stroke="black" stroke-width="0.5669" stroke-miterlimit="22.9256"/>
<path d="M96.7561 73.3504C97.3661 78.1662 105.65 78.2994 104.585 71.7919C103.672 66.2153 96.0219 67.555 96.7561 73.3504Z" stroke="black" stroke-width="0.5669" stroke-miterlimit="22.9256"/>
<path d="M104.833 83.8556C105.04 85.3818 107.007 86.961 109.232 86.4796C110.989 86.0995 112.76 84.5682 112.292 82.2438C111.521 78.4142 104.205 79.2221 104.833 83.8556Z" stroke="black" stroke-width="0.5669" stroke-miterlimit="22.9256"/>
<path d="M63.4636 45.2302C57.6866 46.6532 55.6689 50.9956 56.0436 57.8704C56.3781 64.0088 58.3984 69.9347 65.9558 66.7074C77.708 61.6884 73.7196 42.7042 63.4636 45.2302Z" stroke="black" stroke-width="0.5669" stroke-miterlimit="22.9256"/>
<path d="M73.8308 113.5L82.8208 128.672Z" fill="#DFFFD6" fill-opacity="0.8"/>
<path d="M91.4208 113.656C87.8753 119.797 86.3663 122.531 82.8208 128.672Z" fill="#DFFFD6" fill-opacity="0.8"/>
<path d="M73.8308 113.5C72.905 111.096 72.6211 108.129 73.6662 105.774C75.8427 100.872 81.582 98.6613 86.4845 100.838C91.3873 103.015 93.5972 108.754 91.4208 113.656" fill="#DFFFD6" fill-opacity="0.8"/>
<path d="M73.8308 113.5L82.8208 128.672C86.3663 122.531 87.8753 119.797 91.4208 113.656C93.5972 108.754 91.3873 103.015 86.4845 100.838C81.582 98.6613 75.8427 100.872 73.6662 105.774C72.6211 108.129 72.905 111.096 73.8308 113.5Z" fill="#DFFFD6" fill-opacity="0.8"/>
<path d="M73.8308 113.5L82.8208 128.672C86.3663 122.531 87.8753 119.797 91.4208 113.656C93.5972 108.754 91.3873 103.015 86.4845 100.838C81.582 98.6613 75.8427 100.872 73.6662 105.774C72.6211 108.129 72.905 111.096 73.8308 113.5Z" stroke="#2E3092" stroke-width="0.5" stroke-miterlimit="22.9256" stroke-dasharray="0.5 0.5"/>
<path d="M58.565 18.6364C58.565 19.5568 58.3988 20.3523 58.0664 21.0227C57.734 21.6932 57.2781 22.2102 56.6985 22.5739C56.119 22.9375 55.457 23.1193 54.7127 23.1193C53.9684 23.1193 53.3065 22.9375 52.7269 22.5739C52.1474 22.2102 51.6914 21.6932 51.359 21.0227C51.0266 20.3523 50.8604 19.5568 50.8604 18.6364C50.8604 17.7159 51.0266 16.9205 51.359 16.25C51.6914 15.5795 52.1474 15.0625 52.7269 14.6989C53.3065 14.3352 53.9684 14.1534 54.7127 14.1534C55.457 14.1534 56.119 14.3352 56.6985 14.6989C57.2781 15.0625 57.734 15.5795 58.0664 16.25C58.3988 16.9205 58.565 17.7159 58.565 18.6364ZM57.5423 18.6364C57.5423 17.8807 57.4158 17.2429 57.163 16.723C56.913 16.2031 56.5735 15.8097 56.1445 15.5426C55.7184 15.2756 55.2411 15.142 54.7127 15.142C54.1843 15.142 53.7056 15.2756 53.2766 15.5426C52.8505 15.8097 52.511 16.2031 52.2582 16.723C52.0082 17.2429 51.8832 17.8807 51.8832 18.6364C51.8832 19.392 52.0082 20.0298 52.2582 20.5497C52.511 21.0696 52.8505 21.4631 53.2766 21.7301C53.7056 21.9972 54.1843 22.1307 54.7127 22.1307C55.2411 22.1307 55.7184 21.9972 56.1445 21.7301C56.5735 21.4631 56.913 21.0696 57.163 20.5497C57.4158 20.0298 57.5423 19.392 57.5423 18.6364ZM61.2113 14.2727V23H60.2056V14.2727H61.2113ZM63.0533 23V16.4545H64.0589V23H63.0533ZM63.5646 15.3636C63.3686 15.3636 63.1996 15.2969 63.0575 15.1634C62.9183 15.0298 62.8487 14.8693 62.8487 14.6818C62.8487 14.4943 62.9183 14.3338 63.0575 14.2003C63.1996 14.0668 63.3686 14 63.5646 14C63.7607 14 63.9283 14.0668 64.0675 14.2003C64.2095 14.3338 64.2805 14.4943 64.2805 14.6818C64.2805 14.8693 64.2095 15.0298 64.0675 15.1634C63.9283 15.2969 63.7607 15.3636 63.5646 15.3636ZM71.2532 16.4545L68.8327 23H67.81L65.3896 16.4545H66.4805L68.2873 21.6705H68.3555L70.1623 16.4545H71.2532ZM74.3075 23.1534C73.8928 23.1534 73.5163 23.0753 73.1783 22.919C72.8402 22.7599 72.5717 22.5312 72.3729 22.233C72.174 21.9318 72.0746 21.5682 72.0746 21.142C72.0746 20.767 72.1484 20.4631 72.2962 20.2301C72.4439 19.9943 72.6413 19.8097 72.8885 19.6761C73.1357 19.5426 73.4084 19.4432 73.7067 19.3778C74.0078 19.3097 74.3104 19.2557 74.6143 19.2159C75.0121 19.1648 75.3345 19.1264 75.5817 19.1009C75.8317 19.0724 76.0135 19.0256 76.1271 18.9602C76.2436 18.8949 76.3018 18.7812 76.3018 18.6193V18.5852C76.3018 18.1648 76.1868 17.8381 75.9567 17.6051C75.7294 17.3722 75.3842 17.2557 74.9212 17.2557C74.4411 17.2557 74.0646 17.3608 73.7919 17.571C73.5192 17.7812 73.3274 18.0057 73.2166 18.2443L72.2621 17.9034C72.4325 17.5057 72.6598 17.196 72.9439 16.9744C73.2308 16.75 73.5433 16.5937 73.8814 16.5057C74.2223 16.4148 74.5575 16.3693 74.8871 16.3693C75.0973 16.3693 75.3388 16.3949 75.6115 16.446C75.8871 16.4943 76.1527 16.5952 76.4084 16.7486C76.6669 16.902 76.8814 17.1335 77.0518 17.4432C77.2223 17.7528 77.3075 18.1676 77.3075 18.6875V23H76.3018V22.1136H76.2507C76.1825 22.2557 76.0689 22.4077 75.9098 22.5696C75.7507 22.7315 75.5391 22.8693 75.2749 22.983C75.0107 23.0966 74.6882 23.1534 74.3075 23.1534ZM74.4609 22.25C74.8587 22.25 75.1939 22.1719 75.4666 22.0156C75.7422 21.8594 75.9496 21.6577 76.0888 21.4105C76.2308 21.1634 76.3018 20.9034 76.3018 20.6307V19.7102C76.2592 19.7614 76.1655 19.8082 76.0206 19.8509C75.8786 19.8906 75.7138 19.9261 75.5263 19.9574C75.3416 19.9858 75.1612 20.0114 74.9851 20.0341C74.8118 20.054 74.6712 20.071 74.5632 20.0852C74.3018 20.1193 74.0575 20.1747 73.8303 20.2514C73.6058 20.3253 73.424 20.4375 73.2848 20.5881C73.1484 20.7358 73.0803 20.9375 73.0803 21.1932C73.0803 21.5426 73.2095 21.8068 73.468 21.9858C73.7294 22.1619 74.0604 22.25 74.4609 22.25ZM82.6545 23V14.2727H85.7056C86.3136 14.2727 86.815 14.3778 87.2099 14.5881C87.6048 14.7955 87.8988 15.0753 88.092 15.4276C88.2852 15.777 88.3817 16.1648 88.3817 16.5909C88.3817 16.9659 88.315 17.2756 88.1815 17.5199C88.0508 17.7642 87.8775 17.9574 87.6616 18.0994C87.4485 18.2415 87.217 18.3466 86.967 18.4148V18.5C87.234 18.517 87.5025 18.6108 87.7724 18.7812C88.0423 18.9517 88.2681 19.196 88.4499 19.5142C88.6317 19.8324 88.7227 20.2216 88.7227 20.6818C88.7227 21.1193 88.6232 21.5128 88.4244 21.8622C88.2255 22.2116 87.9116 22.4886 87.4826 22.6932C87.0536 22.8977 86.4954 23 85.8079 23H82.6545ZM83.7113 22.0625H85.8079C86.4982 22.0625 86.9883 21.929 87.2781 21.6619C87.5707 21.392 87.717 21.0653 87.717 20.6818C87.717 20.3864 87.6417 20.1136 87.4911 19.8636C87.3406 19.6108 87.1261 19.4091 86.8477 19.2585C86.5692 19.1051 86.2397 19.0284 85.859 19.0284H83.7113V22.0625ZM83.7113 18.108H85.6715C85.9897 18.108 86.2766 18.0455 86.5323 17.9205C86.7908 17.7955 86.9954 17.6193 87.146 17.392C87.2994 17.1648 87.3761 16.8977 87.3761 16.5909C87.3761 16.2074 87.2425 15.8821 86.9755 15.6151C86.7085 15.3452 86.2852 15.2102 85.7056 15.2102H83.7113V18.108ZM92.2489 23.1534C91.8342 23.1534 91.4577 23.0753 91.1197 22.919C90.7816 22.7599 90.5131 22.5312 90.3143 22.233C90.1154 21.9318 90.016 21.5682 90.016 21.142C90.016 20.767 90.0898 20.4631 90.2376 20.2301C90.3853 19.9943 90.5827 19.8097 90.8299 19.6761C91.0771 19.5426 91.3498 19.4432 91.6481 19.3778C91.9492 19.3097 92.2518 19.2557 92.5558 19.2159C92.9535 19.1648 93.2759 19.1264 93.5231 19.1009C93.7731 19.0724 93.9549 19.0256 94.0685 18.9602C94.185 18.8949 94.2433 18.7812 94.2433 18.6193V18.5852C94.2433 18.1648 94.1282 17.8381 93.8981 17.6051C93.6708 17.3722 93.3256 17.2557 92.8626 17.2557C92.3825 17.2557 92.006 17.3608 91.7333 17.571C91.4606 17.7812 91.2688 18.0057 91.158 18.2443L90.2035 17.9034C90.3739 17.5057 90.6012 17.196 90.8853 16.9744C91.1722 16.75 91.4847 16.5937 91.8228 16.5057C92.1637 16.4148 92.4989 16.3693 92.8285 16.3693C93.0387 16.3693 93.2802 16.3949 93.5529 16.446C93.8285 16.4943 94.0941 16.5952 94.3498 16.7486C94.6083 16.902 94.8228 17.1335 94.9933 17.4432C95.1637 17.7528 95.2489 18.1676 95.2489 18.6875V23H94.2433V22.1136H94.1921C94.1239 22.2557 94.0103 22.4077 93.8512 22.5696C93.6921 22.7315 93.4805 22.8693 93.2163 22.983C92.9521 23.0966 92.6296 23.1534 92.2489 23.1534ZM92.4023 22.25C92.8001 22.25 93.1353 22.1719 93.408 22.0156C93.6836 21.8594 93.891 21.6577 94.0302 21.4105C94.1722 21.1634 94.2433 20.9034 94.2433 20.6307V19.7102C94.2006 19.7614 94.1069 19.8082 93.962 19.8509C93.82 19.8906 93.6552 19.9261 93.4677 19.9574C93.283 19.9858 93.1026 20.0114 92.9265 20.0341C92.7532 20.054 92.6126 20.071 92.5046 20.0852C92.2433 20.1193 91.9989 20.1747 91.7717 20.2514C91.5472 20.3253 91.3654 20.4375 91.2262 20.5881C91.0898 20.7358 91.0217 20.9375 91.0217 21.1932C91.0217 21.5426 91.1509 21.8068 91.4094 21.9858C91.6708 22.1619 92.0018 22.25 92.4023 22.25ZM97.0845 23V16.4545H98.0561V17.4432H98.1243C98.2436 17.1193 98.4595 16.8565 98.772 16.6548C99.0845 16.4531 99.4368 16.3523 99.8288 16.3523C99.9027 16.3523 99.995 16.3537 100.106 16.3565C100.217 16.3594 100.3 16.3636 100.357 16.3693V17.392C100.323 17.3835 100.245 17.3707 100.123 17.3537C100.004 17.3338 99.8771 17.3239 99.7436 17.3239C99.4254 17.3239 99.1413 17.3906 98.8913 17.5241C98.6442 17.6548 98.4482 17.8366 98.3033 18.0696C98.1612 18.2997 98.0902 18.5625 98.0902 18.858V23H97.0845ZM101.549 23V16.4545H102.521V17.4432H102.589C102.708 17.1193 102.924 16.8565 103.237 16.6548C103.549 16.4531 103.902 16.3523 104.294 16.3523C104.368 16.3523 104.46 16.3537 104.571 16.3565C104.681 16.3594 104.765 16.3636 104.822 16.3693V17.392C104.788 17.3835 104.71 17.3707 104.588 17.3537C104.468 17.3338 104.342 17.3239 104.208 17.3239C103.89 17.3239 103.606 17.3906 103.356 17.5241C103.109 17.6548 102.913 17.8366 102.768 18.0696C102.626 18.2997 102.555 18.5625 102.555 18.858V23H101.549ZM107.94 23.1534C107.526 23.1534 107.149 23.0753 106.811 22.919C106.473 22.7599 106.205 22.5312 106.006 22.233C105.807 21.9318 105.707 21.5682 105.707 21.142C105.707 20.767 105.781 20.4631 105.929 20.2301C106.077 19.9943 106.274 19.8097 106.521 19.6761C106.768 19.5426 107.041 19.4432 107.339 19.3778C107.641 19.3097 107.943 19.2557 108.247 19.2159C108.645 19.1648 108.967 19.1264 109.214 19.1009C109.464 19.0724 109.646 19.0256 109.76 18.9602C109.876 18.8949 109.935 18.7812 109.935 18.6193V18.5852C109.935 18.1648 109.82 17.8381 109.589 17.6051C109.362 17.3722 109.017 17.2557 108.554 17.2557C108.074 17.2557 107.697 17.3608 107.425 17.571C107.152 17.7812 106.96 18.0057 106.849 18.2443L105.895 17.9034C106.065 17.5057 106.293 17.196 106.577 16.9744C106.864 16.75 107.176 16.5937 107.514 16.5057C107.855 16.4148 108.19 16.3693 108.52 16.3693C108.73 16.3693 108.972 16.3949 109.244 16.446C109.52 16.4943 109.786 16.5952 110.041 16.7486C110.3 16.902 110.514 17.1335 110.685 17.4432C110.855 17.7528 110.94 18.1676 110.94 18.6875V23H109.935V22.1136H109.884C109.815 22.2557 109.702 22.4077 109.543 22.5696C109.384 22.7315 109.172 22.8693 108.908 22.983C108.643 23.0966 108.321 23.1534 107.94 23.1534ZM108.094 22.25C108.491 22.25 108.827 22.1719 109.099 22.0156C109.375 21.8594 109.582 21.6577 109.722 21.4105C109.864 21.1634 109.935 20.9034 109.935 20.6307V19.7102C109.892 19.7614 109.798 19.8082 109.653 19.8509C109.511 19.8906 109.347 19.9261 109.159 19.9574C108.974 19.9858 108.794 20.0114 108.618 20.0341C108.445 20.054 108.304 20.071 108.196 20.0852C107.935 20.1193 107.69 20.1747 107.463 20.2514C107.239 20.3253 107.057 20.4375 106.918 20.5881C106.781 20.7358 106.713 20.9375 106.713 21.1932C106.713 21.5426 106.842 21.8068 107.101 21.9858C107.362 22.1619 107.693 22.25 108.094 22.25Z" fill="#231F20"/>
</svg>
