<svg width="163" height="214" viewBox="0 0 163 214" fill="none" xmlns="http://www.w3.org/2000/svg">
<rect width="163" height="214" rx="6" fill="white"/>
<path d="M46.5197 23V14.2727H49.4686C50.1532 14.2727 50.7129 14.3963 51.1475 14.6435C51.585 14.8878 51.9089 15.2188 52.1191 15.6364C52.3294 16.054 52.4345 16.5199 52.4345 17.0341C52.4345 17.5483 52.3294 18.0156 52.1191 18.4361C51.9118 18.8565 51.5907 19.1918 51.1561 19.4418C50.7214 19.6889 50.1646 19.8125 49.4856 19.8125H47.372V18.875H49.4515C49.9203 18.875 50.2967 18.794 50.5808 18.6321C50.8649 18.4702 51.0708 18.2514 51.1987 17.9759C51.3294 17.6974 51.3947 17.3835 51.3947 17.0341C51.3947 16.6847 51.3294 16.3722 51.1987 16.0966C51.0708 15.821 50.8635 15.6051 50.5765 15.4489C50.2896 15.2898 49.9089 15.2102 49.4345 15.2102H47.5765V23H46.5197ZM55.9267 23.1534C55.5119 23.1534 55.1355 23.0753 54.7974 22.919C54.4593 22.7599 54.1909 22.5312 53.992 22.233C53.7931 21.9318 53.6937 21.5682 53.6937 21.142C53.6937 20.767 53.7676 20.4631 53.9153 20.2301C54.063 19.9943 54.2605 19.8097 54.5076 19.6761C54.7548 19.5426 55.0275 19.4432 55.3258 19.3778C55.627 19.3097 55.9295 19.2557 56.2335 19.2159C56.6312 19.1648 56.9537 19.1264 57.2008 19.1009C57.4508 19.0724 57.6326 19.0256 57.7463 18.9602C57.8627 18.8949 57.921 18.7812 57.921 18.6193V18.5852C57.921 18.1648 57.8059 17.8381 57.5758 17.6051C57.3485 17.3722 57.0034 17.2557 56.5403 17.2557C56.0602 17.2557 55.6838 17.3608 55.411 17.571C55.1383 17.7812 54.9466 18.0057 54.8358 18.2443L53.8812 17.9034C54.0517 17.5057 54.2789 17.196 54.563 16.9744C54.85 16.75 55.1625 16.5937 55.5005 16.5057C55.8414 16.4148 56.1767 16.3693 56.5062 16.3693C56.7164 16.3693 56.9579 16.3949 57.2306 16.446C57.5062 16.4943 57.7718 16.5952 58.0275 16.7486C58.286 16.902 58.5005 17.1335 58.671 17.4432C58.8414 17.7528 58.9267 18.1676 58.9267 18.6875V23H57.921V22.1136H57.8699C57.8017 22.2557 57.688 22.4077 57.5289 22.5696C57.3699 22.7315 57.1582 22.8693 56.894 22.983C56.6298 23.0966 56.3074 23.1534 55.9267 23.1534ZM56.0801 22.25C56.4778 22.25 56.813 22.1719 57.0858 22.0156C57.3613 21.8594 57.5687 21.6577 57.7079 21.4105C57.85 21.1634 57.921 20.9034 57.921 20.6307V19.7102C57.8784 19.7614 57.7846 19.8082 57.6397 19.8509C57.4977 19.8906 57.3329 19.9261 57.1454 19.9574C56.9608 19.9858 56.7804 20.0114 56.6042 20.0341C56.4309 20.054 56.2903 20.071 56.1824 20.0852C55.921 20.1193 55.6767 20.1747 55.4494 20.2514C55.225 20.3253 55.0431 20.4375 54.9039 20.5881C54.7676 20.7358 54.6994 20.9375 54.6994 21.1932C54.6994 21.5426 54.8287 21.8068 55.0872 21.9858C55.3485 22.1619 55.6795 22.25 56.0801 22.25ZM63.2338 23.1364C62.6884 23.1364 62.2069 22.9986 61.7892 22.723C61.3716 22.4446 61.0449 22.0526 60.8091 21.5469C60.5733 21.0384 60.4554 20.4375 60.4554 19.7443C60.4554 19.0568 60.5733 18.4602 60.8091 17.9545C61.0449 17.4489 61.373 17.0582 61.7935 16.7827C62.214 16.5071 62.6998 16.3693 63.2509 16.3693C63.677 16.3693 64.0137 16.4403 64.2608 16.5824C64.5108 16.7216 64.7012 16.8807 64.8319 17.0597C64.9654 17.2358 65.0691 17.3807 65.1429 17.4943H65.2282V14.2727H66.2338V23H65.2623V21.9943H65.1429C65.0691 22.1136 64.964 22.2642 64.8276 22.446C64.6912 22.625 64.4966 22.7855 64.2438 22.9276C63.9909 23.0668 63.6543 23.1364 63.2338 23.1364ZM63.3702 22.233C63.7736 22.233 64.1145 22.1278 64.3929 21.9176C64.6713 21.7045 64.883 21.4105 65.0279 21.0355C65.1728 20.6577 65.2452 20.2216 65.2452 19.7273C65.2452 19.2386 65.1742 18.8111 65.0321 18.4446C64.8901 18.0753 64.6799 17.7884 64.4015 17.5838C64.123 17.3764 63.7793 17.2727 63.3702 17.2727C62.9441 17.2727 62.589 17.3821 62.3049 17.6009C62.0236 17.8168 61.812 18.1108 61.6699 18.483C61.5307 18.8523 61.4611 19.267 61.4611 19.7273C61.4611 20.1932 61.5321 20.6165 61.6742 20.9972C61.8191 21.375 62.0321 21.6761 62.3134 21.9006C62.5975 22.1222 62.9498 22.233 63.3702 22.233ZM71.7267 23V14.2727H74.6756C75.3574 14.2727 75.9171 14.3892 76.3546 14.6222C76.7921 14.8523 77.1159 15.169 77.3262 15.5724C77.5364 15.9759 77.6415 16.4347 77.6415 16.9489C77.6415 17.4631 77.5364 17.919 77.3262 18.3168C77.1159 18.7145 76.7935 19.027 76.3588 19.2543C75.9242 19.4787 75.3688 19.5909 74.6926 19.5909H72.3063V18.6364H74.6586C75.1245 18.6364 75.4995 18.5682 75.7836 18.4318C76.0705 18.2955 76.2779 18.1023 76.4057 17.8523C76.5364 17.5994 76.6017 17.2983 76.6017 16.9489C76.6017 16.5994 76.5364 16.294 76.4057 16.0327C76.275 15.7713 76.0662 15.5696 75.7793 15.4276C75.4924 15.2827 75.1131 15.2102 74.6415 15.2102H72.7836V23H71.7267ZM75.8347 19.0795L77.9824 23H76.7551L74.6415 19.0795H75.8347ZM83.3912 20.3239V16.4545H84.3968V23H83.3912V21.892H83.323C83.1696 22.2244 82.9309 22.5071 82.6071 22.7401C82.2832 22.9702 81.8741 23.0852 81.3798 23.0852C80.9707 23.0852 80.6071 22.9957 80.2889 22.8168C79.9707 22.6349 79.7207 22.3622 79.5389 21.9986C79.3571 21.6321 79.2662 21.1705 79.2662 20.6136V16.4545H80.2718V20.5455C80.2718 21.0227 80.4054 21.4034 80.6724 21.6875C80.9423 21.9716 81.286 22.1136 81.7037 22.1136C81.9537 22.1136 82.2079 22.0497 82.4664 21.9219C82.7278 21.794 82.9466 21.598 83.1227 21.3338C83.3017 21.0696 83.3912 20.733 83.3912 20.3239ZM87.2445 19.0625V23H86.2388V16.4545H87.2104V17.4773H87.2956C87.449 17.1449 87.682 16.8778 87.9945 16.6761C88.307 16.4716 88.7104 16.3693 89.2047 16.3693C89.6479 16.3693 90.0357 16.4602 90.3681 16.642C90.7005 16.821 90.959 17.0938 91.1436 17.4602C91.3283 17.8239 91.4206 18.2841 91.4206 18.8409V23H90.415V18.9091C90.415 18.3949 90.2814 17.9943 90.0144 17.7074C89.7473 17.4176 89.3809 17.2727 88.915 17.2727C88.5939 17.2727 88.307 17.3423 88.0542 17.4815C87.8042 17.6207 87.6067 17.8239 87.4618 18.0909C87.3169 18.358 87.2445 18.6818 87.2445 19.0625ZM94.264 19.0625V23H93.2583V16.4545H94.2299V17.4773H94.3152C94.4686 17.1449 94.7015 16.8778 95.014 16.6761C95.3265 16.4716 95.7299 16.3693 96.2243 16.3693C96.6674 16.3693 97.0552 16.4602 97.3876 16.642C97.72 16.821 97.9785 17.0938 98.1632 17.4602C98.3478 17.8239 98.4402 18.2841 98.4402 18.8409V23H97.4345V18.9091C97.4345 18.3949 97.301 17.9943 97.0339 17.7074C96.7669 17.4176 96.4004 17.2727 95.9345 17.2727C95.6135 17.2727 95.3265 17.3423 95.0737 17.4815C94.8237 17.6207 94.6262 17.8239 94.4814 18.0909C94.3365 18.358 94.264 18.6818 94.264 19.0625ZM100.278 23V16.4545H101.284V23H100.278ZM100.789 15.3636C100.593 15.3636 100.424 15.2969 100.282 15.1634C100.143 15.0298 100.073 14.8693 100.073 14.6818C100.073 14.4943 100.143 14.3338 100.282 14.2003C100.424 14.0668 100.593 14 100.789 14C100.985 14 101.153 14.0668 101.292 14.2003C101.434 14.3338 101.505 14.4943 101.505 14.6818C101.505 14.8693 101.434 15.0298 101.292 15.1634C101.153 15.2969 100.985 15.3636 100.789 15.3636ZM104.131 19.0625V23H103.126V16.4545H104.097V17.4773H104.182C104.336 17.1449 104.569 16.8778 104.881 16.6761C105.194 16.4716 105.597 16.3693 106.091 16.3693C106.535 16.3693 106.922 16.4602 107.255 16.642C107.587 16.821 107.846 17.0938 108.03 17.4602C108.215 17.8239 108.307 18.2841 108.307 18.8409V23H107.302V18.9091C107.302 18.3949 107.168 17.9943 106.901 17.7074C106.634 17.4176 106.268 17.2727 105.802 17.2727C105.481 17.2727 105.194 17.3423 104.941 17.4815C104.691 17.6207 104.493 17.8239 104.349 18.0909C104.204 18.358 104.131 18.6818 104.131 19.0625ZM112.787 25.5909C112.301 25.5909 111.884 25.5284 111.534 25.4034C111.185 25.2812 110.894 25.1193 110.661 24.9176C110.431 24.7188 110.247 24.5057 110.111 24.2784L110.912 23.7159C111.003 23.8352 111.118 23.9716 111.257 24.125C111.396 24.2812 111.587 24.4162 111.828 24.5298C112.073 24.6463 112.392 24.7045 112.787 24.7045C113.316 24.7045 113.752 24.5767 114.095 24.321C114.439 24.0653 114.611 23.6648 114.611 23.1193V21.7898H114.526C114.452 21.9091 114.347 22.0568 114.21 22.233C114.077 22.4062 113.884 22.5611 113.631 22.6974C113.381 22.831 113.043 22.8977 112.617 22.8977C112.088 22.8977 111.614 22.7727 111.193 22.5227C110.776 22.2727 110.445 21.9091 110.2 21.4318C109.959 20.9545 109.838 20.375 109.838 19.6932C109.838 19.0227 109.956 18.4389 110.192 17.9418C110.428 17.4418 110.756 17.0554 111.176 16.7827C111.597 16.5071 112.083 16.3693 112.634 16.3693C113.06 16.3693 113.398 16.4403 113.648 16.5824C113.901 16.7216 114.094 16.8807 114.227 17.0597C114.364 17.2358 114.469 17.3807 114.543 17.4943H114.645V16.4545H115.617V23.1875C115.617 23.75 115.489 24.2074 115.233 24.5597C114.98 24.9148 114.639 25.1747 114.21 25.3395C113.784 25.5071 113.31 25.5909 112.787 25.5909ZM112.753 21.9943C113.156 21.9943 113.497 21.902 113.776 21.7173C114.054 21.5327 114.266 21.267 114.411 20.9205C114.556 20.5739 114.628 20.1591 114.628 19.6761C114.628 19.2045 114.557 18.7884 114.415 18.4276C114.273 18.0668 114.063 17.7841 113.784 17.5795C113.506 17.375 113.162 17.2727 112.753 17.2727C112.327 17.2727 111.972 17.3807 111.688 17.5966C111.406 17.8125 111.195 18.1023 111.053 18.4659C110.914 18.8295 110.844 19.233 110.844 19.6761C110.844 20.1307 110.915 20.5327 111.057 20.8821C111.202 21.2287 111.415 21.5014 111.696 21.7003C111.98 21.8963 112.333 21.9943 112.753 21.9943Z" fill="#231F20"/>
<path d="M51.9176 89.2299C52.9279 96.3256 57.6947 101.814 61.9489 104.863C63.1426 105.718 64.5349 106.677 65.9449 107.598C67.1422 108.379 68.7895 109.117 69.9899 109.847C76.7438 113.955 82.0411 127.134 81.4484 136.729C81.0204 143.657 76.657 149.614 73.3374 154.339C66.7723 163.684 56.935 178.364 65.1846 191.109C70.8199 199.815 87.3363 204.437 95.1721 185.829C97.126 181.188 97.9055 169.517 98.5133 163.464C100.634 142.338 99.5593 138.822 105.338 119.108C107.62 111.326 108.87 105.515 107.004 96.7744C106.115 92.6137 103.47 86.9872 100.862 83.5918C99.8274 82.2448 99.0235 81.2351 97.9872 80.1605C94.2242 76.258 88.395 72.8602 81.6106 70.9258C73.2294 68.5365 67.8413 68.7338 60.9208 72.9826C56.9494 75.4204 50.796 81.3508 51.9176 89.2299Z" stroke="#231F20" stroke-width="0.5669" stroke-miterlimit="22.9256"/>
<path d="M80.574 48.3863C76.6911 49.3427 75.335 52.2615 75.5868 56.8823C75.8115 61.0084 77.1696 64.9914 82.2493 62.822C90.1486 59.4488 87.4679 46.6886 80.574 48.3863Z" stroke="#231F20" stroke-width="0.5669" stroke-miterlimit="22.9256"/>
<path d="M95.7841 64.8574C96.427 61.756 95.3994 60.1731 91.9774 60.4078C89.5048 60.5776 87.1075 61.7645 86.7639 64.0793C86.0785 68.7003 94.195 72.5265 95.7841 64.8574Z" stroke="#231F20" stroke-width="0.5669" stroke-miterlimit="22.9256"/>
<path d="M96.5396 73.2617C97.1496 78.0775 105.433 78.2107 104.368 71.7032C103.456 66.1266 95.8054 67.4663 96.5396 73.2617Z" stroke="#231F20" stroke-width="0.5669" stroke-miterlimit="22.9256"/>
<path d="M104.616 83.7669C104.823 85.2931 106.79 86.8723 109.015 86.3909C110.772 86.0108 112.544 84.4795 112.076 82.1551C111.304 78.3255 103.989 79.1334 104.616 83.7669Z" stroke="#231F20" stroke-width="0.5669" stroke-miterlimit="22.9256"/>
<path d="M63.2468 45.1415C57.4698 46.5645 55.4521 50.9069 55.8268 57.7817C56.1613 63.9201 58.1815 69.846 65.739 66.6187C77.4912 61.5997 73.5028 42.6155 63.2468 45.1415Z" stroke="#231F20" stroke-width="0.5669" stroke-miterlimit="22.9256"/>
<path d="M68.6324 115.319C73.2605 113.818 76.6156 112.863 81.7234 113.892C82.4836 114.046 82.8862 114.194 83.5991 114.404L93.2017 118.165C94.2644 118.652 93.6204 118.727 95.0675 118.871C96.9517 119.059 98.0861 118.089 98.6439 116.21C99.502 113.318 99.8708 106.036 97.9367 103.102C97.3922 102.276 97.446 102.02 96.9627 101.563C96.9239 101.527 95.4173 99.9866 94.5241 99.4766C91.9171 97.9876 90.9164 97.6746 88.4375 96.4685C88.2022 96.354 88.0177 96.1944 87.7181 96.0297C85.2854 94.6934 83.5429 93.8079 81.5431 91.8492C77.0173 87.4169 77.9936 85.7056 74.0182 82.0402L72.4941 80.9332C69.5681 79.3506 65.3218 81.1606 63.1482 83.2304C62.5765 83.775 61.5342 85.6263 61.2689 86.2453C60.7215 87.5229 60.3802 88.7379 60.1668 90.0463C60.0616 90.6909 59.8864 91.4534 59.8274 92.0212C59.7846 92.4331 59.8359 92.8316 59.7756 93.2299C59.7203 93.595 59.6361 93.6545 59.61 94.1804C59.4805 96.7755 59.3385 101.058 59.8878 103.707C60.1614 105.027 61.0452 108.877 61.6164 110.047C61.8905 110.609 62.1649 111.171 62.4356 111.81C63.4637 114.235 65.8324 116.227 68.6324 115.319Z" fill="#E5FFDE" fill-opacity="0.8" stroke="#2E3092" stroke-width="0.5" stroke-miterlimit="22.9256" stroke-dasharray="0.5 0.5"/>
</svg>
