<svg width="163" height="214" viewBox="0 0 163 214" fill="none" xmlns="http://www.w3.org/2000/svg">
<rect width="163" height="214" rx="6" fill="white"/>
<path d="M96.7561 73.3504C97.3661 78.1662 105.65 78.2994 104.585 71.7919C103.672 66.2153 96.0219 67.555 96.7561 73.3504Z" fill="#FCFCFC" fill-opacity="0.3" stroke="#231F20" stroke-width="0.5669" stroke-miterlimit="22.9256"/>
<path d="M104.833 83.8556C105.04 85.3818 107.007 86.961 109.232 86.4796C110.989 86.0995 112.76 84.5682 112.292 82.2438C111.521 78.4142 104.205 79.2221 104.833 83.8556Z" fill="#FCFCFC" fill-opacity="0.3" stroke="#231F20" stroke-width="0.5669" stroke-miterlimit="22.9256"/>
<path d="M51.7899 89.2299C52.8002 96.3256 57.5669 101.814 61.8212 104.863C63.0148 105.718 64.4072 106.677 65.8172 107.598C67.0145 108.379 68.6617 109.117 69.8622 109.847C76.616 113.955 81.9134 127.134 81.3207 136.729C80.8927 143.657 76.5293 149.614 73.2096 154.339C66.6446 163.684 56.8072 178.364 65.0569 191.109C70.6922 199.815 87.2085 204.437 95.0443 185.829C96.9983 181.188 97.7778 169.517 98.3855 163.464C100.507 142.338 99.4315 138.822 105.211 119.108C107.492 111.326 108.743 105.515 106.876 96.7744C105.987 92.6137 103.342 86.9872 100.734 83.5918C99.6997 82.2448 98.8958 81.2351 97.8594 80.1605C94.0964 76.258 88.2673 72.8602 81.4828 70.9258C73.1016 68.5365 67.7135 68.7338 60.793 72.9826C56.8217 75.4204 50.6683 81.3508 51.7899 89.2299Z" fill="#FCFCFC" fill-opacity="0.3" stroke="#231F20" stroke-width="0.5669" stroke-miterlimit="22.9256"/>
<path d="M80.4461 48.3863C76.5632 49.3427 75.2071 52.2615 75.4588 56.8823C75.6836 61.0084 77.0417 64.9914 82.1214 62.822C90.0207 59.4488 87.34 46.6886 80.4461 48.3863Z" fill="#FCFCFC" fill-opacity="0.3" stroke="#231F20" stroke-width="0.5669" stroke-miterlimit="22.9256"/>
<path d="M95.6563 64.8574C96.2992 61.756 95.2717 60.1731 91.8497 60.4078C89.377 60.5776 86.9798 61.7645 86.6362 64.0793C85.9508 68.7003 94.0672 72.5265 95.6563 64.8574Z" fill="#FCFCFC" fill-opacity="0.3" stroke="#231F20" stroke-width="0.5669" stroke-miterlimit="22.9256"/>
<path d="M63.1191 45.1415C57.3421 46.5645 55.3244 50.9069 55.6992 57.7817C56.0337 63.9201 58.0539 69.846 65.6114 66.6187C77.3635 61.5997 73.3752 42.6155 63.1191 45.1415Z" fill="#FCFCFC" fill-opacity="0.3" stroke="#231F20" stroke-width="0.5669" stroke-miterlimit="22.9256"/>
<path d="M65.2313 95.6146C68.1626 92.2516 76.0172 92.1328 80.1898 92.5589C82.4521 92.7899 88.8093 95.2027 92.9751 97.7908C98.0619 100.951 99.8849 101.942 99.8849 108.391C99.8849 110.417 98.9463 111.228 97.3555 112.243C95.3483 113.523 92.25 111.567 90.0863 110.906C83.1656 108.791 77.3406 109.993 70.9179 111.103C66.9471 111.79 65.8045 108.931 64.8742 105.934C64.1593 103.631 63.564 97.5271 65.2313 95.6146Z" fill="#DFFFD6" fill-opacity="0.8" stroke="#2E3092" stroke-width="0.5" stroke-miterlimit="22.9256" stroke-dasharray="0.5 0.5"/>
<path d="M42.2912 23V14.2727H45.2401C45.9247 14.2727 46.4844 14.3963 46.919 14.6435C47.3565 14.8878 47.6804 15.2188 47.8906 15.6364C48.1009 16.054 48.206 16.5199 48.206 17.0341C48.206 17.5483 48.1009 18.0156 47.8906 18.4361C47.6832 18.8565 47.3622 19.1918 46.9276 19.4418C46.4929 19.6889 45.9361 19.8125 45.2571 19.8125H43.1435V18.875H45.223C45.6918 18.875 46.0682 18.794 46.3523 18.6321C46.6364 18.4702 46.8423 18.2514 46.9702 17.9759C47.1009 17.6974 47.1662 17.3835 47.1662 17.0341C47.1662 16.6847 47.1009 16.3722 46.9702 16.0966C46.8423 15.821 46.6349 15.6051 46.348 15.4489C46.0611 15.2898 45.6804 15.2102 45.206 15.2102H43.348V23H42.2912ZM51.6982 23.1534C51.2834 23.1534 50.907 23.0753 50.5689 22.919C50.2308 22.7599 49.9624 22.5312 49.7635 22.233C49.5646 21.9318 49.4652 21.5682 49.4652 21.142C49.4652 20.767 49.5391 20.4631 49.6868 20.2301C49.8345 19.9943 50.032 19.8097 50.2791 19.6761C50.5263 19.5426 50.799 19.4432 51.0973 19.3778C51.3984 19.3097 51.701 19.2557 52.005 19.2159C52.4027 19.1648 52.7251 19.1264 52.9723 19.1009C53.2223 19.0724 53.4041 19.0256 53.5178 18.9602C53.6342 18.8949 53.6925 18.7812 53.6925 18.6193V18.5852C53.6925 18.1648 53.5774 17.8381 53.3473 17.6051C53.12 17.3722 52.7749 17.2557 52.3118 17.2557C51.8317 17.2557 51.4553 17.3608 51.1825 17.571C50.9098 17.7812 50.718 18.0057 50.6072 18.2443L49.6527 17.9034C49.8232 17.5057 50.0504 17.196 50.3345 16.9744C50.6214 16.75 50.9339 16.5937 51.272 16.5057C51.6129 16.4148 51.9482 16.3693 52.2777 16.3693C52.4879 16.3693 52.7294 16.3949 53.0021 16.446C53.2777 16.4943 53.5433 16.5952 53.799 16.7486C54.0575 16.902 54.272 17.1335 54.4425 17.4432C54.6129 17.7528 54.6982 18.1676 54.6982 18.6875V23H53.6925V22.1136H53.6413C53.5732 22.2557 53.4595 22.4077 53.3004 22.5696C53.1413 22.7315 52.9297 22.8693 52.6655 22.983C52.4013 23.0966 52.0788 23.1534 51.6982 23.1534ZM51.8516 22.25C52.2493 22.25 52.5845 22.1719 52.8572 22.0156C53.1328 21.8594 53.3402 21.6577 53.4794 21.4105C53.6214 21.1634 53.6925 20.9034 53.6925 20.6307V19.7102C53.6499 19.7614 53.5561 19.8082 53.4112 19.8509C53.2692 19.8906 53.1044 19.9261 52.9169 19.9574C52.7322 19.9858 52.5518 20.0114 52.3757 20.0341C52.2024 20.054 52.0618 20.071 51.9538 20.0852C51.6925 20.1193 51.4482 20.1747 51.2209 20.2514C50.9964 20.3253 50.8146 20.4375 50.6754 20.5881C50.5391 20.7358 50.4709 20.9375 50.4709 21.1932C50.4709 21.5426 50.6001 21.8068 50.8587 21.9858C51.12 22.1619 51.451 22.25 51.8516 22.25ZM59.0053 23.1364C58.4599 23.1364 57.9783 22.9986 57.5607 22.723C57.1431 22.4446 56.8164 22.0526 56.5806 21.5469C56.3448 21.0384 56.2269 20.4375 56.2269 19.7443C56.2269 19.0568 56.3448 18.4602 56.5806 17.9545C56.8164 17.4489 57.1445 17.0582 57.565 16.7827C57.9854 16.5071 58.4712 16.3693 59.0224 16.3693C59.4485 16.3693 59.7852 16.4403 60.0323 16.5824C60.2823 16.7216 60.4727 16.8807 60.6033 17.0597C60.7369 17.2358 60.8406 17.3807 60.9144 17.4943H60.9996V14.2727H62.0053V23H61.0337V21.9943H60.9144C60.8406 22.1136 60.7354 22.2642 60.5991 22.446C60.4627 22.625 60.2681 22.7855 60.0153 22.9276C59.7624 23.0668 59.4258 23.1364 59.0053 23.1364ZM59.1417 22.233C59.5451 22.233 59.886 22.1278 60.1644 21.9176C60.4428 21.7045 60.6545 21.4105 60.7994 21.0355C60.9442 20.6577 61.0167 20.2216 61.0167 19.7273C61.0167 19.2386 60.9457 18.8111 60.8036 18.4446C60.6616 18.0753 60.4513 17.7884 60.1729 17.5838C59.8945 17.3764 59.5508 17.2727 59.1417 17.2727C58.7156 17.2727 58.3604 17.3821 58.0763 17.6009C57.7951 17.8168 57.5835 18.1108 57.4414 18.483C57.3022 18.8523 57.2326 19.267 57.2326 19.7273C57.2326 20.1932 57.3036 20.6165 57.4457 20.9972C57.5906 21.375 57.8036 21.6761 58.0849 21.9006C58.369 22.1222 58.7212 22.233 59.1417 22.233ZM67.4982 14.2727H68.7596L71.7255 21.517H71.8278L74.7937 14.2727H76.055V23H75.0664V16.3693H74.9812L72.2539 23H71.2994L68.5721 16.3693H68.4869V23H67.4982V14.2727ZM80.782 23.1364C80.1513 23.1364 79.6072 22.9972 79.1499 22.7188C78.6953 22.4375 78.3445 22.0455 78.0973 21.5426C77.853 21.0369 77.7308 20.4489 77.7308 19.7784C77.7308 19.108 77.853 18.517 78.0973 18.0057C78.3445 17.4915 78.6882 17.0909 79.1286 16.804C79.5717 16.5142 80.0888 16.3693 80.6797 16.3693C81.0206 16.3693 81.3572 16.4261 81.6896 16.5398C82.022 16.6534 82.3246 16.8381 82.5973 17.0938C82.87 17.3466 83.0874 17.6818 83.2493 18.0994C83.4112 18.517 83.4922 19.0312 83.4922 19.642V20.0682H78.4467V19.1989H82.4695C82.4695 18.8295 82.3956 18.5 82.2479 18.2102C82.103 17.9205 81.8956 17.6918 81.6257 17.5241C81.3587 17.3565 81.0433 17.2727 80.6797 17.2727C80.2791 17.2727 79.9325 17.3722 79.6399 17.571C79.3501 17.767 79.1271 18.0227 78.9709 18.3381C78.8146 18.6534 78.7365 18.9915 78.7365 19.3523V19.9318C78.7365 20.4261 78.8217 20.8452 78.9922 21.1889C79.1655 21.5298 79.4055 21.7898 79.7124 21.9688C80.0192 22.1449 80.3757 22.233 80.782 22.233C81.0462 22.233 81.2848 22.196 81.4979 22.1222C81.7138 22.0455 81.8999 21.9318 82.0561 21.7812C82.2124 21.6278 82.3331 21.4375 82.4183 21.2102L83.3899 21.483C83.2876 21.8125 83.1158 22.1023 82.8743 22.3523C82.6328 22.5994 82.3345 22.7926 81.9794 22.9318C81.6243 23.0682 81.2251 23.1364 80.782 23.1364ZM87.4936 23.1364C86.9482 23.1364 86.4666 22.9986 86.049 22.723C85.6314 22.4446 85.3047 22.0526 85.0689 21.5469C84.8331 21.0384 84.7152 20.4375 84.7152 19.7443C84.7152 19.0568 84.8331 18.4602 85.0689 17.9545C85.3047 17.4489 85.6328 17.0582 86.0533 16.7827C86.4737 16.5071 86.9595 16.3693 87.5107 16.3693C87.9368 16.3693 88.2734 16.4403 88.5206 16.5824C88.7706 16.7216 88.9609 16.8807 89.0916 17.0597C89.2251 17.2358 89.3288 17.3807 89.4027 17.4943H89.4879V14.2727H90.4936V23H89.522V21.9943H89.4027C89.3288 22.1136 89.2237 22.2642 89.0874 22.446C88.951 22.625 88.7564 22.7855 88.5036 22.9276C88.2507 23.0668 87.9141 23.1364 87.4936 23.1364ZM87.63 22.233C88.0334 22.233 88.3743 22.1278 88.6527 21.9176C88.9311 21.7045 89.1428 21.4105 89.2876 21.0355C89.4325 20.6577 89.505 20.2216 89.505 19.7273C89.505 19.2386 89.4339 18.8111 89.2919 18.4446C89.1499 18.0753 88.9396 17.7884 88.6612 17.5838C88.3828 17.3764 88.0391 17.2727 87.63 17.2727C87.2038 17.2727 86.8487 17.3821 86.5646 17.6009C86.2834 17.8168 86.0717 18.1108 85.9297 18.483C85.7905 18.8523 85.7209 19.267 85.7209 19.7273C85.7209 20.1932 85.7919 20.6165 85.9339 20.9972C86.0788 21.375 86.2919 21.6761 86.5732 21.9006C86.8572 22.1222 87.2095 22.233 87.63 22.233ZM92.4751 23V16.4545H93.4808V23H92.4751ZM92.9865 15.3636C92.7905 15.3636 92.6214 15.2969 92.4794 15.1634C92.3402 15.0298 92.2706 14.8693 92.2706 14.6818C92.2706 14.4943 92.3402 14.3338 92.4794 14.2003C92.6214 14.0668 92.7905 14 92.9865 14C93.1825 14 93.3501 14.0668 93.4893 14.2003C93.6314 14.3338 93.7024 14.4943 93.7024 14.6818C93.7024 14.8693 93.6314 15.0298 93.4893 15.1634C93.3501 15.2969 93.1825 15.3636 92.9865 15.3636ZM97.2489 23.1534C96.8342 23.1534 96.4577 23.0753 96.1197 22.919C95.7816 22.7599 95.5131 22.5312 95.3143 22.233C95.1154 21.9318 95.016 21.5682 95.016 21.142C95.016 20.767 95.0898 20.4631 95.2376 20.2301C95.3853 19.9943 95.5827 19.8097 95.8299 19.6761C96.0771 19.5426 96.3498 19.4432 96.6481 19.3778C96.9492 19.3097 97.2518 19.2557 97.5558 19.2159C97.9535 19.1648 98.2759 19.1264 98.5231 19.1009C98.7731 19.0724 98.9549 19.0256 99.0685 18.9602C99.185 18.8949 99.2433 18.7812 99.2433 18.6193V18.5852C99.2433 18.1648 99.1282 17.8381 98.8981 17.6051C98.6708 17.3722 98.3256 17.2557 97.8626 17.2557C97.3825 17.2557 97.006 17.3608 96.7333 17.571C96.4606 17.7812 96.2688 18.0057 96.158 18.2443L95.2035 17.9034C95.3739 17.5057 95.6012 17.196 95.8853 16.9744C96.1722 16.75 96.4847 16.5937 96.8228 16.5057C97.1637 16.4148 97.4989 16.3693 97.8285 16.3693C98.0387 16.3693 98.2802 16.3949 98.5529 16.446C98.8285 16.4943 99.0941 16.5952 99.3498 16.7486C99.6083 16.902 99.8228 17.1335 99.9933 17.4432C100.164 17.7528 100.249 18.1676 100.249 18.6875V23H99.2433V22.1136H99.1921C99.1239 22.2557 99.0103 22.4077 98.8512 22.5696C98.6921 22.7315 98.4805 22.8693 98.2163 22.983C97.9521 23.0966 97.6296 23.1534 97.2489 23.1534ZM97.4023 22.25C97.8001 22.25 98.1353 22.1719 98.408 22.0156C98.6836 21.8594 98.891 21.6577 99.0302 21.4105C99.1722 21.1634 99.2433 20.9034 99.2433 20.6307V19.7102C99.2006 19.7614 99.1069 19.8082 98.962 19.8509C98.82 19.8906 98.6552 19.9261 98.4677 19.9574C98.283 19.9858 98.1026 20.0114 97.9265 20.0341C97.7532 20.054 97.6126 20.071 97.5046 20.0852C97.2433 20.1193 96.9989 20.1747 96.7717 20.2514C96.5472 20.3253 96.3654 20.4375 96.2262 20.5881C96.0898 20.7358 96.0217 20.9375 96.0217 21.1932C96.0217 21.5426 96.1509 21.8068 96.4094 21.9858C96.6708 22.1619 97.0018 22.25 97.4023 22.25ZM103.09 14.2727V23H102.085V14.2727H103.09ZM109.057 20.3239V16.4545H110.063V23H109.057V21.892H108.989C108.836 22.2244 108.597 22.5071 108.273 22.7401C107.949 22.9702 107.54 23.0852 107.046 23.0852C106.637 23.0852 106.273 22.9957 105.955 22.8168C105.637 22.6349 105.387 22.3622 105.205 21.9986C105.023 21.6321 104.932 21.1705 104.932 20.6136V16.4545H105.938V20.5455C105.938 21.0227 106.071 21.4034 106.338 21.6875C106.608 21.9716 106.952 22.1136 107.37 22.1136C107.62 22.1136 107.874 22.0497 108.132 21.9219C108.394 21.794 108.613 21.598 108.789 21.3338C108.968 21.0696 109.057 20.733 109.057 20.3239ZM112.911 19.0625V23H111.905V16.4545H112.876V17.4773H112.962C113.115 17.1449 113.348 16.8778 113.661 16.6761C113.973 16.4716 114.376 16.3693 114.871 16.3693C115.314 16.3693 115.702 16.4602 116.034 16.642C116.366 16.821 116.625 17.0938 116.81 17.4602C116.994 17.8239 117.087 18.2841 117.087 18.8409V23H116.081V18.9091C116.081 18.3949 115.947 17.9943 115.68 17.7074C115.413 17.4176 115.047 17.2727 114.581 17.2727C114.26 17.2727 113.973 17.3423 113.72 17.4815C113.47 17.6207 113.273 17.8239 113.128 18.0909C112.983 18.358 112.911 18.6818 112.911 19.0625ZM120.85 23.1534C120.436 23.1534 120.059 23.0753 119.721 22.919C119.383 22.7599 119.115 22.5312 118.916 22.233C118.717 21.9318 118.618 21.5682 118.618 21.142C118.618 20.767 118.691 20.4631 118.839 20.2301C118.987 19.9943 119.184 19.8097 119.431 19.6761C119.679 19.5426 119.951 19.4432 120.25 19.3778C120.551 19.3097 120.853 19.2557 121.157 19.2159C121.555 19.1648 121.877 19.1264 122.125 19.1009C122.375 19.0724 122.556 19.0256 122.67 18.9602C122.787 18.8949 122.845 18.7812 122.845 18.6193V18.5852C122.845 18.1648 122.73 17.8381 122.5 17.6051C122.272 17.3722 121.927 17.2557 121.464 17.2557C120.984 17.2557 120.608 17.3608 120.335 17.571C120.062 17.7812 119.87 18.0057 119.76 18.2443L118.805 17.9034C118.975 17.5057 119.203 17.196 119.487 16.9744C119.774 16.75 120.086 16.5937 120.424 16.5057C120.765 16.4148 121.1 16.3693 121.43 16.3693C121.64 16.3693 121.882 16.3949 122.154 16.446C122.43 16.4943 122.696 16.5952 122.951 16.7486C123.21 16.902 123.424 17.1335 123.595 17.4432C123.765 17.7528 123.85 18.1676 123.85 18.6875V23H122.845V22.1136H122.794C122.725 22.2557 122.612 22.4077 122.453 22.5696C122.294 22.7315 122.082 22.8693 121.818 22.983C121.554 23.0966 121.231 23.1534 120.85 23.1534ZM121.004 22.25C121.402 22.25 121.737 22.1719 122.01 22.0156C122.285 21.8594 122.493 21.6577 122.632 21.4105C122.774 21.1634 122.845 20.9034 122.845 20.6307V19.7102C122.802 19.7614 122.708 19.8082 122.564 19.8509C122.422 19.8906 122.257 19.9261 122.069 19.9574C121.885 19.9858 121.704 20.0114 121.528 20.0341C121.355 20.054 121.214 20.071 121.106 20.0852C120.845 20.1193 120.6 20.1747 120.373 20.2514C120.149 20.3253 119.967 20.4375 119.828 20.5881C119.691 20.7358 119.623 20.9375 119.623 21.1932C119.623 21.5426 119.752 21.8068 120.011 21.9858C120.272 22.1619 120.603 22.25 121.004 22.25Z" fill="#231F20"/>
</svg>
