<svg width="163" height="214" viewBox="0 0 163 214" fill="none" xmlns="http://www.w3.org/2000/svg">
<rect width="163" height="214" rx="6" fill="white"/>
<path d="M42.907 14.2727L45.4979 21.6193H45.6001L48.1911 14.2727H49.299L46.0945 23H45.0036L41.799 14.2727H42.907ZM51.8388 23.1534C51.424 23.1534 51.0476 23.0753 50.7095 22.919C50.3714 22.7599 50.103 22.5312 49.9041 22.233C49.7053 21.9318 49.6058 21.5682 49.6058 21.142C49.6058 20.767 49.6797 20.4631 49.8274 20.2301C49.9751 19.9943 50.1726 19.8097 50.4197 19.6761C50.6669 19.5426 50.9396 19.4432 51.2379 19.3778C51.5391 19.3097 51.8416 19.2557 52.1456 19.2159C52.5433 19.1648 52.8658 19.1264 53.1129 19.1009C53.3629 19.0724 53.5447 19.0256 53.6584 18.9602C53.7749 18.8949 53.8331 18.7812 53.8331 18.6193V18.5852C53.8331 18.1648 53.718 17.8381 53.4879 17.6051C53.2607 17.3722 52.9155 17.2557 52.4524 17.2557C51.9723 17.2557 51.5959 17.3608 51.3232 17.571C51.0504 17.7812 50.8587 18.0057 50.7479 18.2443L49.7933 17.9034C49.9638 17.5057 50.1911 17.196 50.4751 16.9744C50.7621 16.75 51.0746 16.5937 51.4126 16.5057C51.7536 16.4148 52.0888 16.3693 52.4183 16.3693C52.6286 16.3693 52.87 16.3949 53.1428 16.446C53.4183 16.4943 53.6839 16.5952 53.9396 16.7486C54.1982 16.902 54.4126 17.1335 54.5831 17.4432C54.7536 17.7528 54.8388 18.1676 54.8388 18.6875V23H53.8331V22.1136H53.782C53.7138 22.2557 53.6001 22.4077 53.4411 22.5696C53.282 22.7315 53.0703 22.8693 52.8061 22.983C52.5419 23.0966 52.2195 23.1534 51.8388 23.1534ZM51.9922 22.25C52.3899 22.25 52.7251 22.1719 52.9979 22.0156C53.2734 21.8594 53.4808 21.6577 53.62 21.4105C53.7621 21.1634 53.8331 20.9034 53.8331 20.6307V19.7102C53.7905 19.7614 53.6967 19.8082 53.5518 19.8509C53.4098 19.8906 53.245 19.9261 53.0575 19.9574C52.8729 19.9858 52.6925 20.0114 52.5163 20.0341C52.343 20.054 52.2024 20.071 52.0945 20.0852C51.8331 20.1193 51.5888 20.1747 51.3615 20.2514C51.1371 20.3253 50.9553 20.4375 50.8161 20.5881C50.6797 20.7358 50.6115 20.9375 50.6115 21.1932C50.6115 21.5426 50.7408 21.8068 50.9993 21.9858C51.2607 22.1619 51.5916 22.25 51.9922 22.25ZM57.68 14.2727V23H56.6744V14.2727H57.68ZM62.2663 23.1364C61.6357 23.1364 61.0916 22.9972 60.6342 22.7188C60.1797 22.4375 59.8288 22.0455 59.5817 21.5426C59.3374 21.0369 59.2152 20.4489 59.2152 19.7784C59.2152 19.108 59.3374 18.517 59.5817 18.0057C59.8288 17.4915 60.1726 17.0909 60.6129 16.804C61.0561 16.5142 61.5732 16.3693 62.1641 16.3693C62.505 16.3693 62.8416 16.4261 63.174 16.5398C63.5064 16.6534 63.8089 16.8381 64.0817 17.0938C64.3544 17.3466 64.5717 17.6818 64.7337 18.0994C64.8956 18.517 64.9766 19.0312 64.9766 19.642V20.0682H59.9311V19.1989H63.9538C63.9538 18.8295 63.88 18.5 63.7322 18.2102C63.5874 17.9205 63.38 17.6918 63.1101 17.5241C62.843 17.3565 62.5277 17.2727 62.1641 17.2727C61.7635 17.2727 61.4169 17.3722 61.1243 17.571C60.8345 17.767 60.6115 18.0227 60.4553 18.3381C60.299 18.6534 60.2209 18.9915 60.2209 19.3523V19.9318C60.2209 20.4261 60.3061 20.8452 60.4766 21.1889C60.6499 21.5298 60.8899 21.7898 61.1967 21.9688C61.5036 22.1449 61.8601 22.233 62.2663 22.233C62.5305 22.233 62.7692 22.196 62.9822 22.1222C63.1982 22.0455 63.3842 21.9318 63.5405 21.7812C63.6967 21.6278 63.8175 21.4375 63.9027 21.2102L64.8743 21.483C64.772 21.8125 64.6001 22.1023 64.3587 22.3523C64.1172 22.5994 63.8189 22.7926 63.4638 22.9318C63.1087 23.0682 62.7095 23.1364 62.2663 23.1364ZM67.5121 19.0625V23H66.5064V16.4545H67.478V17.4773H67.5632C67.7166 17.1449 67.9496 16.8778 68.2621 16.6761C68.5746 16.4716 68.978 16.3693 69.4723 16.3693C69.9155 16.3693 70.3033 16.4602 70.6357 16.642C70.968 16.821 71.2266 17.0938 71.4112 17.4602C71.5959 17.8239 71.6882 18.2841 71.6882 18.8409V23H70.6825V18.9091C70.6825 18.3949 70.549 17.9943 70.282 17.7074C70.0149 17.4176 69.6484 17.2727 69.1825 17.2727C68.8615 17.2727 68.5746 17.3423 68.3217 17.4815C68.0717 17.6207 67.8743 17.8239 67.7294 18.0909C67.5845 18.358 67.5121 18.6818 67.5121 19.0625ZM76.3725 16.4545V17.3068H72.9805V16.4545H76.3725ZM73.9691 14.8864H74.9748V21.125C74.9748 21.4091 75.016 21.6222 75.0984 21.7642C75.1836 21.9034 75.2915 21.9972 75.4222 22.0455C75.5558 22.0909 75.6964 22.1136 75.8441 22.1136C75.9549 22.1136 76.0458 22.108 76.1168 22.0966C76.1879 22.0824 76.2447 22.071 76.2873 22.0625L76.4918 22.9659C76.4237 22.9915 76.3285 23.017 76.2063 23.0426C76.0842 23.071 75.9293 23.0852 75.7418 23.0852C75.4577 23.0852 75.1793 23.0241 74.9066 22.902C74.6367 22.7798 74.4123 22.5938 74.2333 22.3438C74.0572 22.0938 73.9691 21.7784 73.9691 21.3977V14.8864ZM77.8853 23V16.4545H78.891V23H77.8853ZM78.3967 15.3636C78.2006 15.3636 78.0316 15.2969 77.8896 15.1634C77.7504 15.0298 77.6808 14.8693 77.6808 14.6818C77.6808 14.4943 77.7504 14.3338 77.8896 14.2003C78.0316 14.0668 78.2006 14 78.3967 14C78.5927 14 78.7603 14.0668 78.8995 14.2003C79.0415 14.3338 79.1126 14.4943 79.1126 14.6818C79.1126 14.8693 79.0415 15.0298 78.8995 15.1634C78.7603 15.2969 78.5927 15.3636 78.3967 15.3636ZM84.6023 14.2727L87.1932 21.6193H87.2955L89.8864 14.2727H90.9943L87.7898 23H86.6989L83.4943 14.2727H84.6023ZM93.5341 23.1534C93.1193 23.1534 92.7429 23.0753 92.4048 22.919C92.0668 22.7599 91.7983 22.5312 91.5994 22.233C91.4006 21.9318 91.3011 21.5682 91.3011 21.142C91.3011 20.767 91.375 20.4631 91.5227 20.2301C91.6705 19.9943 91.8679 19.8097 92.1151 19.6761C92.3622 19.5426 92.6349 19.4432 92.9332 19.3778C93.2344 19.3097 93.5369 19.2557 93.8409 19.2159C94.2386 19.1648 94.5611 19.1264 94.8082 19.1009C95.0582 19.0724 95.2401 19.0256 95.3537 18.9602C95.4702 18.8949 95.5284 18.7812 95.5284 18.6193V18.5852C95.5284 18.1648 95.4134 17.8381 95.1832 17.6051C94.956 17.3722 94.6108 17.2557 94.1477 17.2557C93.6676 17.2557 93.2912 17.3608 93.0185 17.571C92.7457 17.7812 92.554 18.0057 92.4432 18.2443L91.4886 17.9034C91.6591 17.5057 91.8864 17.196 92.1705 16.9744C92.4574 16.75 92.7699 16.5937 93.108 16.5057C93.4489 16.4148 93.7841 16.3693 94.1136 16.3693C94.3239 16.3693 94.5653 16.3949 94.8381 16.446C95.1136 16.4943 95.3793 16.5952 95.6349 16.7486C95.8935 16.902 96.108 17.1335 96.2784 17.4432C96.4489 17.7528 96.5341 18.1676 96.5341 18.6875V23H95.5284V22.1136H95.4773C95.4091 22.2557 95.2955 22.4077 95.1364 22.5696C94.9773 22.7315 94.7656 22.8693 94.5014 22.983C94.2372 23.0966 93.9148 23.1534 93.5341 23.1534ZM93.6875 22.25C94.0852 22.25 94.4205 22.1719 94.6932 22.0156C94.9688 21.8594 95.1761 21.6577 95.3153 21.4105C95.4574 21.1634 95.5284 20.9034 95.5284 20.6307V19.7102C95.4858 19.7614 95.392 19.8082 95.2472 19.8509C95.1051 19.8906 94.9403 19.9261 94.7528 19.9574C94.5682 19.9858 94.3878 20.0114 94.2116 20.0341C94.0384 20.054 93.8977 20.071 93.7898 20.0852C93.5284 20.1193 93.2841 20.1747 93.0568 20.2514C92.8324 20.3253 92.6506 20.4375 92.5114 20.5881C92.375 20.7358 92.3068 20.9375 92.3068 21.1932C92.3068 21.5426 92.4361 21.8068 92.6946 21.9858C92.956 22.1619 93.2869 22.25 93.6875 22.25ZM99.3754 14.2727V23H98.3697V14.2727H99.3754ZM103.962 23.1364C103.331 23.1364 102.787 22.9972 102.33 22.7188C101.875 22.4375 101.524 22.0455 101.277 21.5426C101.033 21.0369 100.911 20.4489 100.911 19.7784C100.911 19.108 101.033 18.517 101.277 18.0057C101.524 17.4915 101.868 17.0909 102.308 16.804C102.751 16.5142 103.268 16.3693 103.859 16.3693C104.2 16.3693 104.537 16.4261 104.869 16.5398C105.202 16.6534 105.504 16.8381 105.777 17.0938C106.05 17.3466 106.267 17.6818 106.429 18.0994C106.591 18.517 106.672 19.0312 106.672 19.642V20.0682H101.626V19.1989H105.649C105.649 18.8295 105.575 18.5 105.428 18.2102C105.283 17.9205 105.075 17.6918 104.805 17.5241C104.538 17.3565 104.223 17.2727 103.859 17.2727C103.459 17.2727 103.112 17.3722 102.82 17.571C102.53 17.767 102.307 18.0227 102.151 18.3381C101.994 18.6534 101.916 18.9915 101.916 19.3523V19.9318C101.916 20.4261 102.001 20.8452 102.172 21.1889C102.345 21.5298 102.585 21.7898 102.892 21.9688C103.199 22.1449 103.555 22.233 103.962 22.233C104.226 22.233 104.464 22.196 104.678 22.1222C104.893 22.0455 105.08 21.9318 105.236 21.7812C105.392 21.6278 105.513 21.4375 105.598 21.2102L106.57 21.483C106.467 21.8125 106.295 22.1023 106.054 22.3523C105.813 22.5994 105.514 22.7926 105.159 22.9318C104.804 23.0682 104.405 23.1364 103.962 23.1364ZM109.207 19.0625V23H108.202V16.4545H109.173V17.4773H109.259C109.412 17.1449 109.645 16.8778 109.957 16.6761C110.27 16.4716 110.673 16.3693 111.168 16.3693C111.611 16.3693 111.999 16.4602 112.331 16.642C112.663 16.821 112.922 17.0938 113.107 17.4602C113.291 17.8239 113.384 18.2841 113.384 18.8409V23H112.378V18.9091C112.378 18.3949 112.244 17.9943 111.977 17.7074C111.71 17.4176 111.344 17.2727 110.878 17.2727C110.557 17.2727 110.27 17.3423 110.017 17.4815C109.767 17.6207 109.57 17.8239 109.425 18.0909C109.28 18.358 109.207 18.6818 109.207 19.0625ZM118.068 16.4545V17.3068H114.676V16.4545H118.068ZM115.664 14.8864H116.67V21.125C116.67 21.4091 116.711 21.6222 116.794 21.7642C116.879 21.9034 116.987 21.9972 117.118 22.0455C117.251 22.0909 117.392 22.1136 117.539 22.1136C117.65 22.1136 117.741 22.108 117.812 22.0966C117.883 22.0824 117.94 22.071 117.983 22.0625L118.187 22.9659C118.119 22.9915 118.024 23.017 117.902 23.0426C117.779 23.071 117.625 23.0852 117.437 23.0852C117.153 23.0852 116.875 23.0241 116.602 22.902C116.332 22.7798 116.108 22.5938 115.929 22.3438C115.752 22.0938 115.664 21.7784 115.664 21.3977V14.8864ZM119.581 23V16.4545H120.586V23H119.581ZM120.092 15.3636C119.896 15.3636 119.727 15.2969 119.585 15.1634C119.446 15.0298 119.376 14.8693 119.376 14.6818C119.376 14.4943 119.446 14.3338 119.585 14.2003C119.727 14.0668 119.896 14 120.092 14C120.288 14 120.456 14.0668 120.595 14.2003C120.737 14.3338 120.808 14.4943 120.808 14.6818C120.808 14.8693 120.737 15.0298 120.595 15.1634C120.456 15.2969 120.288 15.3636 120.092 15.3636Z" fill="#231F20"/>
<path d="M52.3016 89.6759C53.3119 96.7716 58.0786 102.26 62.3328 105.309C63.5265 106.165 64.9189 107.123 66.3288 108.044C67.5262 108.825 69.1734 109.564 70.3739 110.294C77.1277 114.401 82.4251 127.58 81.8324 137.175C81.4043 144.103 77.041 150.06 73.7213 154.785C67.1563 164.13 57.3189 178.81 65.5686 191.555C71.2039 200.261 87.7202 204.883 95.556 186.275C97.5099 181.634 98.2896 169.963 98.8973 163.91C101.018 142.784 99.9432 139.268 105.723 119.554C108.004 111.772 109.255 105.961 107.388 97.2204C106.499 93.0597 103.854 87.4332 101.246 84.0378C100.211 82.6908 99.4075 81.6811 98.3711 80.6065C94.6081 76.704 88.779 73.3062 81.9945 71.3718C73.6133 68.9825 68.2252 69.1798 61.3047 73.4286C57.3334 75.8664 51.1799 81.7968 52.3016 89.6759Z" stroke="#231F20" stroke-width="0.5669" stroke-miterlimit="22.9256"/>
<path d="M80.9581 48.8324C77.0752 49.7888 75.7191 52.7076 75.9708 57.3284C76.1956 61.4545 77.5537 65.4375 82.6334 63.2681C90.5327 59.8949 87.8519 47.1347 80.9581 48.8324Z" stroke="#231F20" stroke-width="0.5669" stroke-miterlimit="22.9256"/>
<path d="M96.168 65.3034C96.8109 62.202 95.7834 60.6191 92.3614 60.8538C89.8887 61.0236 87.4915 62.2105 87.1479 64.5253C86.4625 69.1463 94.5789 72.9725 96.168 65.3034Z" stroke="#231F20" stroke-width="0.5669" stroke-miterlimit="22.9256"/>
<path d="M96.9236 73.7078C97.5336 78.5236 105.817 78.6568 104.752 72.1493C103.839 66.5727 96.1894 67.9124 96.9236 73.7078Z" stroke="#231F20" stroke-width="0.5669" stroke-miterlimit="22.9256"/>
<path d="M105 84.213C105.207 85.7392 107.175 87.3184 109.399 86.837C111.156 86.4569 112.928 84.9256 112.46 82.6012C111.688 78.7716 104.373 79.5795 105 84.213Z" stroke="#231F20" stroke-width="0.5669" stroke-miterlimit="22.9256"/>
<path d="M63.631 45.5875C57.854 47.0105 55.8363 51.3529 56.2111 58.2277C56.5455 64.3661 58.5658 70.292 66.1232 67.0647C77.8754 62.0457 73.8871 43.0615 63.631 45.5875Z" stroke="#231F20" stroke-width="0.5669" stroke-miterlimit="22.9256"/>
<path d="M54.8467 97.0233H70.433V118.128H54.8467V97.0233Z" fill="#DFFFD6" fill-opacity="0.8" stroke="#2E3092" stroke-width="0.5" stroke-miterlimit="22.9256" stroke-dasharray="0.5 0.5"/>
<path d="M72.1355 99.4541H80.8183V120.559H72.1355V99.4541Z" fill="#DFFFD6" fill-opacity="0.8" stroke="#2E3092" stroke-width="0.5" stroke-miterlimit="22.9256" stroke-dasharray="0.5 0.5"/>
<path d="M82.5208 100.312H91.2036V121.417H82.5208V100.312Z" fill="#DFFFD6" fill-opacity="0.8" stroke="#2E3092" stroke-width="0.5" stroke-miterlimit="22.9256" stroke-dasharray="0.5 0.5"/>
<path d="M92.906 103.399H101.589V124.504H92.906V103.399Z" fill="#DFFFD6" fill-opacity="0.8" stroke="#2E3092" stroke-width="0.5" stroke-miterlimit="22.9256" stroke-dasharray="0.5 0.5"/>
<path d="M103.292 106.659H111.975V127.763H103.292V106.659Z" fill="#DFFFD6" fill-opacity="0.8" stroke="#2E3092" stroke-width="0.5" stroke-miterlimit="22.9256" stroke-dasharray="0.5 0.5"/>
</svg>
